<svg xmlns="http://www.w3.org/2000/svg" fill="none" viewBox="0 0 49 49"><g clip-path="url(#a)"><path fill="#fff" d="M10 10v29h29V10H10z"/><path fill="#006FCF" d="M33.826 17.117l.928-2.523H39V10H10v29h29v-4.582h-4.002l-1.479-1.728-1.537 1.728H20.614v-9.21h-3.753l4.693-10.614h4.564L27.22 17v-2.407h5.667l.945 2.523h-.006zm-3.201 1.67l-.012-1.015.389 1.015 1.885 5.034h1.873l1.897-5.034.365-1.003v6.043h1.972v-7.731h-3.277l-1.49 3.926-.395 1.062-.406-1.062-1.496-3.926h-3.277v7.731h1.972v-5.04zm-4.246 5.034h2.274l-3.405-7.731H22.61l-3.422 7.731h2.245l.597-1.49h3.753l.597 1.49zm-2.86-5.115l.39-.969.388.969.8 1.954H22.72l.8-1.954zm-1.322 6.507v7.703h6.456v-1.67h-4.484V29.9h4.397v-1.665h-4.397v-1.351h4.484v-1.67h-6.456zm13.642 7.703h2.564l-3.614-3.869 3.614-3.84H35.88l-2.332 2.506-2.32-2.505h-2.57l3.608 3.868-3.607 3.84h2.494l2.349-2.512 2.337 2.512zm.974-3.875L39 31.263v-4.42l-2.187 2.193v.005z"/></g><defs><clipPath id="a"><path fill="#fff" d="M10 10h29v29H10z"/></clipPath></defs></svg>