<svg xmlns="http://www.w3.org/2000/svg" fill="none" viewBox="0 0 32 32"><path fill="#000" d="M32 16c0-8.837-7.163-16-16-16S0 7.163 0 16c0 7.986 5.85 14.606 13.5 15.806V20.625H9.435V16H13.5v-3.525c0-4.01 2.39-6.224 6.045-6.224 1.751 0 3.581.313 3.581.313V10.5h-2.017c-1.986 0-2.607 1.232-2.607 2.498V16h4.437l-.709 4.625h-3.728v11.18C26.15 30.607 32 23.986 32 16z"/><path fill="#fff" d="M22.227 20.624L22.936 16h-4.437v-3.001c0-1.266.618-2.498 2.607-2.498h2.017V6.563s-1.83-.313-3.581-.313c-3.655 0-6.045 2.214-6.045 6.225V16H9.434v4.624h4.063v11.181a16.111 16.111 0 005.002 0v-11.18h3.728z"/></svg>