<svg xmlns="http://www.w3.org/2000/svg" fill="none" viewBox="0 0 32 32"><path fill="#000" d="M16 32c8.836 0 16-7.163 16-16S24.836 0 16 0C7.163 0 0 7.163 0 16s7.163 16 16 16z"/><path fill="#fff" d="M16 7.741c2.69 0 3.008.01 4.07.06.98.044 1.514.208 1.87.345.47.183.806.4 1.159.754.353.353.571.688.754 1.16.137.355.3.888.346 1.87.047 1.061.059 1.381.059 4.07 0 2.687-.01 3.007-.06 4.07-.044.98-.208 1.514-.345 1.87-.183.469-.4.805-.754 1.159a3.107 3.107 0 01-1.16.753c-.355.138-.888.301-1.87.347-1.061.047-1.379.059-4.07.059-2.69 0-3.007-.01-4.07-.06-.98-.045-1.514-.208-1.87-.346a3.129 3.129 0 01-1.159-.753 3.107 3.107 0 01-.753-1.16c-.138-.355-.301-.888-.346-1.87-.048-1.062-.06-1.382-.06-4.07 0-2.688.01-3.008.06-4.07.045-.98.208-1.514.346-1.87.182-.47.4-.806.753-1.159a3.107 3.107 0 011.16-.754c.355-.137.888-.3 1.87-.346 1.062-.047 1.382-.059 4.07-.059zm0-1.816c-2.736 0-3.08.012-4.153.062-1.072.05-1.804.218-2.446.47a4.984 4.984 0 00-1.785 1.16 4.912 4.912 0 00-1.162 1.786c-.249.64-.42 1.372-.47 2.446-.049 1.074-.06 1.417-.06 4.153s.011 3.079.06 4.153c.05 1.071.219 1.803.47 2.446a4.982 4.982 0 001.162 1.785c.56.56 1.12.905 1.785 1.161.64.25 1.372.42 2.446.47 1.073.05 1.417.061 4.153.061 2.735 0 3.079-.012 4.152-.061 1.072-.05 1.804-.218 2.447-.47a4.985 4.985 0 001.785-1.161 4.919 4.919 0 001.161-1.785c.249-.64.42-1.373.47-2.446.05-1.074.061-1.418.061-4.153s-.012-3.08-.062-4.153c-.05-1.072-.218-1.804-.469-2.446a4.984 4.984 0 00-1.161-1.785 4.912 4.912 0 00-1.785-1.162c-.64-.249-1.373-.42-2.447-.47-1.073-.049-1.417-.06-4.152-.06z"/><path fill="#fff" d="M16 10.828a5.172 5.172 0 100 10.345 5.172 5.172 0 000-10.345zm0 8.53a3.36 3.36 0 110-6.718 3.36 3.36 0 010 6.719zm5.378-7.528a1.209 1.209 0 100-2.418 1.209 1.209 0 000 2.418z"/></svg>