<svg xmlns="http://www.w3.org/2000/svg" fill="none" viewBox="0 0 33 32"><path fill="#000" d="M16.25 0A16 16 0 001.468 9.877a16 16 0 00-.91 9.244 16 16 0 004.378 8.193 16 16 0 008.193 4.379 16 16 0 009.244-.91 16 16 0 007.18-5.894A16 16 0 0032.25 16a16 16 0 00-16-16zm-4.653 24.421h-3.49V13.177h3.49V24.42zM9.85 11.642a2.031 2.031 0 01-1.13-.338 2.031 2.031 0 01-.752-.908A2.032 2.032 0 019.436 7.62a2.032 2.032 0 012.437 1.98 2.038 2.038 0 01-.59 1.438 2.038 2.038 0 01-1.433.604zm14.821 12.78h-3.488v-5.475c0-1.305-.026-2.979-1.815-2.979-1.79 0-2.105 1.42-2.105 2.885v5.568h-3.476V13.177h3.35v1.533h.048c.465-.885 1.604-1.817 3.303-1.817 3.533 0 4.183 2.328 4.183 5.351v6.177z"/></svg>