<svg xmlns="http://www.w3.org/2000/svg" fill="none" viewBox="0 0 56 49"><g clip-path="url(#a)"><path fill="#000" d="M22.396 36.635l-.31-.03c-.279-.03-.493-.095-.493-.28 0-.214.214-.34.554-.34.324.016.638.1.927.25l.28-.53a2.14 2.14 0 00-1.207-.31c-.744 0-1.238.37-1.238.96 0 .495.37.775 1.018.865l.31.03c.338.06.523.155.523.31 0 .215-.25.37-.678.37a1.7 1.7 0 01-.988-.31l-.31.495c.375.25.819.38 1.268.37.863 0 1.362-.4 1.362-.96 0-.525-.405-.805-1.018-.9v.01zm3.147 1.236c-.31 0-.434-.186-.434-.495v-1.33h1.053v-.59h-1.053v-.9h-.648v.9h-.589v.59h.589v1.365c0 .68.279 1.084 1.017 1.084.28-.005.559-.08.803-.215l-.184-.555a.988.988 0 01-.554.155v-.01zm-5.99-2.046a1.12 1.12 0 00-.929-.434A1.546 1.546 0 0017.143 37c.03.805.678 1.454 1.481 1.484.365.03.714-.135.928-.434v.37h.649v-2.974h-.649v.38zm.03 1.115a.9.9 0 01-.839.955.899.899 0 01-.953-.84v-.11a.9.9 0 01.838-.955.899.899 0 01.953.84v.11zm-4.021-1.544a1.077 1.077 0 00-.18 0 1.222 1.222 0 00-1.052.525 1.076 1.076 0 00-.988-.525.992.992 0 00-.863.435v-.37h-.648v2.974h.648v-1.64c0-.524.28-.774.708-.774.43 0 .649.28.649.775v1.64h.648v-1.64a.686.686 0 01.589-.77c.04-.005.08-.005.125-.005.434 0 .648.28.648.775v1.64h.713v-1.86c.05-.6-.394-1.125-.992-1.175l-.005-.005zm22.098.44a1.114 1.114 0 00-.928-.435 1.547 1.547 0 00-1.482 1.61c.03.804.679 1.454 1.482 1.484.364.03.713-.135.928-.435v.37h.648v-2.974h-.648v.38zm.06 1.115a.9.9 0 01-.838.954.899.899 0 01-.953-.84v-.11a.9.9 0 01.838-.954.899.899 0 01.952.84v.11zm2.104-1.12v-.37h-.648v2.974h.648V36.76c0-.494.215-.774.619-.774.135.005.27.025.399.06l.184-.62a2.113 2.113 0 00-.434-.03.874.874 0 00-.773.435h.005zm-6 .16h.035c.28 0 .553.1.773.28l.31-.525a1.535 1.535 0 00-1.053-.34 1.489 1.489 0 00-1.577 1.39v.155A1.485 1.485 0 0033.73 38.5h.16c.379.02.753-.1 1.052-.34l-.31-.525a1.24 1.24 0 01-.772.28.88.88 0 01-.903-.854v-.105a.912.912 0 01.863-.96l.005-.005zm9.802-1.71v1.55a1.114 1.114 0 00-.928-.435 1.546 1.546 0 00-1.482 1.61c.03.804.679 1.454 1.482 1.484.364.03.713-.135.928-.435v.37h.648v-4.149h-.648v.005zm.06 2.66a.9.9 0 01-.839.954.899.899 0 01-.952-.84v-.11a.9.9 0 01.838-.954.899.899 0 01.952.84v.11zm-15.514-1.546a1.55 1.55 0 00.035 3.099c.434.01.863-.135 1.207-.4l-.31-.464c-.249.195-.553.3-.867.31a.836.836 0 01-.898-.715h2.195v-.25c.03-.96-.524-1.58-1.362-1.58zm-.803 1.27a.779.779 0 01.803-.71.725.725 0 01.743.705H27.37v.005zm4.295-1.27a.874.874 0 00-.773.436v-.37h-.649v2.974h.649V36.76c0-.494.214-.774.618-.774.135.005.27.025.404.06l.185-.62a2.113 2.113 0 00-.434-.03z"/><path fill="#FF5F00" d="M32.866 12.884h-9.732v17.524h9.732V12.884z"/><path fill="#EB001B" d="M23.753 21.645c0-3.413 1.561-6.642 4.235-8.761-4.834-3.799-11.822-2.954-15.614 1.889-3.79 4.843-2.948 11.846 1.886 15.644a11.09 11.09 0 0013.728-.01 11.139 11.139 0 01-4.235-8.761z"/><path fill="#F79E1B" d="M46 21.646c.005 6.148-4.963 11.141-11.099 11.146-2.499 0-4.923-.834-6.883-2.384 4.828-3.828 5.646-10.85 1.83-15.694a11.364 11.364 0 00-1.83-1.834c4.823-3.804 11.807-2.97 15.603 1.864A11.112 11.112 0 0146 21.642"/></g><defs><clipPath id="a"><path fill="#fff" d="M10 10.5h36v28H10z"/></clipPath></defs></svg>