<?xml version="1.0" encoding="UTF-8"?>
<svg xmlns="http://www.w3.org/2000/svg" version="1.1" viewBox="0 0 165 55">
  <!-- Generator: Adobe Illustrator 29.6.1, SVG Export Plug-In . SVG Version: 2.1.1 Build 9)  -->
  <defs>
    <style>
      .st0 {
        fill: #9d0f38;
      }

      .st1 {
        fill: none;
      }

      .st2 {
        fill: #af9146;
      }
    </style>
  </defs>
  <g id="Clearspace">
    <path class="st1" d="M257.78-63.89H-92.49V119.56h350.27V-63.89ZM-82.37,48.02v-3.5l-.88.53-.31-.69,1.31-.72h.84v4.38h-.96ZM-82.51,53.1l-.74-.47,5.77-9.33.74.49-5.77,9.32ZM-78.83,52.76v-.68l.78-.88c.66-.74.86-1.13.86-1.53s-.23-.62-.62-.62c-.3,0-.55.15-.73.34l-.38-.62c.36-.3.78-.47,1.36-.47.92,0,1.38.55,1.38,1.24,0,.63-.35,1.13-.96,1.8l-.61.66c.22,0,.7-.01,1.13-.01h.57v.77h-2.8ZM-68.89,52.76h-1.58l-2.47-9.12h1.26l1.58,6.1c.15.54.38,1.42.46,1.88h.01c.12-.57.3-1.3.47-1.94l1.57-6.04h1.16l-2.46,9.12ZM-59.15,119.44V-63.48M257.19-19.67H-92.42M257.19-.43H-92.42M-92.42,39.39h349.6M224.3-63.48V119.44M-92.42,75.33h349.6M236.64,68.44c6.3-4.47,10.65-5.95,14.03-5.95,2.18,0,3.1.33,3.78.61-11.02,1.83-10.3,12.23-21.41,12.23-5.7,0-10.84-5.28-14.79-9.7-3.73-4.18-7.95-7.9-13.59-9.07.79-.17,2.18-.46,4.12-.46,7.48,0,11.97,4.23,16.98,8.4,4,3.34,9.36,6.47,14.31,6.47.77,0,1.41-.14,1.95-.24-1.99-.42-3.7-1.06-5.37-2.29ZM-92.42,56.1h349.6M-76.04-53.62c-12.8,0-16.45,9.95-16.45,16.86s3.66,17.09,16.45,17.09,16.46-9.95,16.46-17.09-3.66-16.86-16.46-16.86ZM-76.04-24.81c-9.37,0-10.8-8.92-10.8-11.95s1.43-11.72,10.8-11.72,10.74,8.69,10.74,11.72-1.37,11.95-10.74,11.95ZM-86.02-60.65c0-1.79,1.45-3.25,3.25-3.25s3.25,1.45,3.25,3.25-1.45,3.25-3.25,3.25-3.25-1.45-3.25-3.25ZM-72.56-60.65c0-1.79,1.45-3.25,3.25-3.25s3.25,1.45,3.25,3.25-1.45,3.25-3.25,3.25-3.25-1.45-3.25-3.25ZM240.61-53.62c-12.8,0-16.46,9.95-16.46,16.86s3.66,17.09,16.46,17.09,16.46-9.95,16.46-17.09-3.66-16.86-16.46-16.86ZM240.61-24.81c-9.37,0-10.8-8.92-10.8-11.95s1.43-11.72,10.8-11.72,10.74,8.69,10.74,11.72-1.37,11.95-10.74,11.95ZM230.63-60.65c0-1.79,1.45-3.25,3.25-3.25s3.25,1.45,3.25,3.25-1.45,3.25-3.25,3.25-3.25-1.45-3.25-3.25ZM244.09-60.65c0-1.79,1.46-3.25,3.25-3.25s3.25,1.45,3.25,3.25-1.45,3.25-3.25,3.25-3.25-1.45-3.25-3.25ZM-75.32,85.6c-12.8,0-16.46,9.95-16.46,16.86s3.66,17.09,16.46,17.09,16.45-9.95,16.45-17.09-3.66-16.86-16.45-16.86ZM-75.32,114.41c-9.37,0-10.8-8.92-10.8-11.95s1.43-11.72,10.8-11.72,10.74,8.69,10.74,11.72-1.37,11.95-10.74,11.95ZM-85.3,78.58c0-1.79,1.45-3.25,3.25-3.25s3.25,1.45,3.25,3.25-1.45,3.25-3.25,3.25-3.25-1.45-3.25-3.25ZM-71.84,78.58c0-1.79,1.45-3.25,3.25-3.25s3.25,1.45,3.25,3.25-1.45,3.25-3.25,3.25-3.25-1.45-3.25-3.25ZM241.32,85.6c-12.8,0-16.46,9.95-16.46,16.86s3.66,17.09,16.46,17.09,16.45-9.95,16.45-17.09-3.66-16.86-16.45-16.86ZM241.32,114.41c-9.37,0-10.8-8.92-10.8-11.95s1.43-11.72,10.8-11.72,10.74,8.69,10.74,11.72-1.37,11.95-10.74,11.95ZM231.34,78.58c0-1.79,1.45-3.25,3.25-3.25s3.25,1.45,3.25,3.25-1.46,3.25-3.25,3.25-3.25-1.45-3.25-3.25ZM244.8,78.58c0-1.79,1.46-3.25,3.25-3.25s3.25,1.45,3.25,3.25-1.45,3.25-3.25,3.25-3.25-1.45-3.25-3.25Z"/>
  </g>
  <g id="Wortmarke_x5F_rot_x5F_BirdSimple_x5F_Wein_x5F_sub_x5F_RGB">
    <g id="Wortmarke_x5F_rot_x5F_BirdSimple_x5F_Wein_x5F_sub_x5F_RGB1" data-name="Wortmarke_x5F_rot_x5F_BirdSimple_x5F_Wein_x5F_sub_x5F_RGB">
      <path id="Wein" class="st0" d="M8.93,48.04l-3.03,6.95h-.21L.64,43.74h2.16l3,7.07,3.05-7.27h.16l3.06,7.27,3-7.07h2.16l-5.05,11.26h-.21l-3.05-6.95ZM20.29,50.25v2.86h5.49v1.75h-7.43v-11.12h7.43v1.75h-5.49v3.02h4.3v1.75h-4.3ZM30.28,54.86h-1.95v-11.12h1.95v11.12ZM32.63,43.61l7,6.78v-6.65h1.95v11.16l-.14.06-6.99-6.8v6.69h-1.95v-11.18l.13-.06Z"/>
      <path id="MOVENPICK_x5F_150929" class="st0" d="M16,32.95l-6.98-13.53-3.95,12.22c-.84,2.59-2.23,2.45-4.07,2.45h-.36l7.9-23.02c.03-.09.15-.09.19,0l7.39,15.8,7.39-15.8c.04-.08.16-.08.19.01l7.89,23.01h-.36c-1.84,0-3.22.14-4.07-2.45l-3.95-12.22-6.98,13.53c-.05.1-.2.1-.25,0ZM59.82,34.35h-.35l-8.66-19.31h3.7l5.15,12.42,5.12-12.42h3.7l-8.66,19.31ZM73.78,26.2v4.9h9.42v3h-12.74V15.04h12.74v3h-9.42v5.17h7.38v3h-7.38ZM86.78,14.82l12.01,11.63v-11.41h3.35v19.14l-.25.11-11.98-11.66v11.47h-3.35V14.93l.22-.11ZM109.44,34.1h-3.35V15.04h7.19c5.17,0,6.73,3.59,6.73,6.07,0,3.7-3.27,6.15-6.34,6.15h-4.22v6.84ZM116.66,21.11c0-1.06-.57-3.1-3.24-3.1h-3.98v6.21h4.08c2.56-.05,3.13-2.12,3.13-3.1ZM126.32,34.1h-3.35V15.04h3.35v19.06ZM143.75,20.21c-1.03-1.23-3.05-2.4-5.01-2.4-5.31,0-6.07,5.04-6.07,6.73s.76,6.73,6.07,6.73c2.02,0,4-1.23,5.26-2.37l1.93,2.42c-1.85,1.85-4.11,3.02-7.19,3.02-7.27,0-9.45-5.72-9.45-9.8s2.18-9.78,9.45-9.78c3.27,0,5.45,1.31,7.24,3.32l-2.23,2.12ZM148.95,34.1V15.04h3.35v7.87l7.43-7.87h3.95l.05.16-8.74,9.07,9.37,9.67-.06.16h-4.03l-7.98-8.47v8.47h-3.35ZM41.31,14.75c-7.39,0-9.5,5.74-9.5,9.74s2.11,9.87,9.5,9.87,9.5-5.74,9.5-9.87-2.11-9.74-9.5-9.74ZM39.29,10.69c0,1.04-.84,1.87-1.87,1.87s-1.87-.84-1.87-1.87.84-1.88,1.87-1.88,1.87.84,1.87,1.88ZM47.07,10.69c0,1.04-.84,1.87-1.87,1.87s-1.87-.84-1.87-1.87.84-1.88,1.87-1.88,1.87.84,1.87,1.88ZM41.31,31.39c-5.41,0-6.24-5.15-6.24-6.9s.82-6.77,6.24-6.77,6.2,5.02,6.2,6.77-.79,6.9-6.2,6.9Z"/>
      <path id="Bird" class="st2" d="M94.82,7.13c3.64-2.58,6.15-3.44,8.1-3.44,1.26,0,1.79.19,2.18.35-6.36,1.05-5.95,7.06-12.37,7.06-3.29,0-6.26-3.05-8.54-5.6-2.15-2.41-4.59-4.56-7.85-5.24.45-.1,1.26-.27,2.38-.27,4.32,0,6.91,2.44,9.81,4.85,2.31,1.93,5.4,3.74,8.26,3.74.45,0,.82-.08,1.13-.14-1.15-.24-2.14-.61-3.1-1.32Z"/>
    </g>
  </g>
</svg>