<svg xmlns="http://www.w3.org/2000/svg" fill="none" viewBox="0 0 32 32"><path fill="#000" d="M16 32c8.836 0 16-7.163 16-16S24.836 0 16 0C7.163 0 0 7.163 0 16s7.163 16 16 16z"/><path fill="#fff" d="M26.221 10.866a2.672 2.672 0 00-1.886-1.887C22.67 8.533 16 8.533 16 8.533s-6.67 0-8.334.446a2.676 2.676 0 00-1.887 1.887C5.334 12.53 5.334 16 5.334 16s0 3.47.445 5.134c.244.917.967 1.64 1.887 1.887 1.664.446 8.334.446 8.334.446s6.67 0 8.335-.446a2.676 2.676 0 001.886-1.887c.446-1.664.446-5.134.446-5.134s0-3.47-.446-5.134zM13.867 19.2v-6.4l5.542 3.2-5.542 3.2z"/></svg>