<svg width="16" height="16" viewBox="0 0 16 16" fill="none" xmlns="http://www.w3.org/2000/svg">
<path d="M8 0.650391C8.04674 0.650391 8.09729 0.666386 8.13867 0.713867L8.17676 0.772461L10.0332 4.57812C10.219 4.95886 10.5533 5.24856 10.959 5.36914L11.1377 5.41016L15.1729 6.08105C15.243 6.09273 15.3067 6.14121 15.3369 6.23828C15.3598 6.31183 15.3529 6.38495 15.3203 6.44629L15.2793 6.50391L12.3916 9.52637C12.0983 9.83348 11.9487 10.2468 11.9639 10.6641L11.9805 10.8428L12.6162 15.0635C12.6333 15.1772 12.5878 15.2624 12.5244 15.3105C12.479 15.3449 12.4321 15.3565 12.3838 15.3457L12.334 15.3271L8.69238 13.3896C8.31245 13.1876 7.86932 13.1628 7.47363 13.3145L7.30762 13.3896L3.66602 15.3271C3.60002 15.3623 3.53636 15.3565 3.47559 15.3105C3.42793 15.2743 3.39034 15.2169 3.38184 15.1426L3.38379 15.0635L4.01953 10.8428C4.08236 10.4262 3.9768 9.99933 3.72461 9.66406L3.6084 9.52637L0.720703 6.50391C0.654169 6.43424 0.632619 6.33634 0.663086 6.23828C0.685764 6.16538 0.727449 6.1198 0.776367 6.09668L0.827148 6.08105L4.8623 5.41016C5.28705 5.33952 5.65128 5.08853 5.87793 4.73535L5.9668 4.57812L7.82324 0.772461C7.86851 0.679698 7.93775 0.650391 8 0.650391Z" stroke="#9D0F38" stroke-width="1.3"/>
</svg>
