<svg xmlns="http://www.w3.org/2000/svg" fill="none" viewBox="0 0 76 49"><g clip-path="url(#a)"><path fill="#009CDE" d="M48.52 21.32c-.235 1.539-1.413 1.539-2.555 1.539h-.648l.455-2.875a.357.357 0 01.121-.215.358.358 0 01.232-.085h.298c.776 0 1.509 0 1.887.44a1.43 1.43 0 01.209 1.197m-.496-4.019h-4.299a.598.598 0 00-.388.143.596.596 0 00-.202.36l-1.738 11a.357.357 0 00.01.153.358.358 0 00.071.135.357.357 0 00.123.093.359.359 0 00.15.033h2.204a.412.412 0 00.27-.1.418.418 0 00.142-.25l.494-3.12a.596.596 0 01.202-.36.598.598 0 01.388-.143h1.36c2.831 0 4.466-1.368 4.893-4.079.192-1.185.007-2.116-.548-2.769-.612-.717-1.695-1.096-3.134-1.096"/><path fill="#003087" d="M17.86 21.319c-.235 1.54-1.414 1.54-2.555 1.54h-.647l.455-2.876a.357.357 0 01.12-.215.358.358 0 01.233-.085h.298c.776 0 1.509 0 1.887.441a1.43 1.43 0 01.209 1.196m-.496-4.018h-4.299a.599.599 0 00-.388.141.596.596 0 00-.203.359l-1.738 11a.357.357 0 00.009.152.357.357 0 00.072.135.36.36 0 00.123.093.36.36 0 00.15.033h2.053c.143 0 .28-.05.388-.143a.596.596 0 00.202-.36l.47-2.968a.596.596 0 01.201-.36.598.598 0 01.388-.144h1.36c2.832 0 4.466-1.367 4.893-4.079.193-1.185.008-2.116-.548-2.769-.612-.717-1.695-1.096-3.133-1.096m9.98 7.973a2.29 2.29 0 01-2.323 1.962 1.598 1.598 0 01-.758-.106 1.594 1.594 0 01-.621-.446 1.591 1.591 0 01-.341-.684 1.589 1.589 0 01.017-.764 2.3 2.3 0 012.304-1.977 1.735 1.735 0 011.373.56 1.768 1.768 0 01.35 1.453m2.87-4h-2.06a.359.359 0 00-.232.085.358.358 0 00-.121.215l-.091.574-.143-.208c-.447-.645-1.44-.862-2.432-.862a4.738 4.738 0 00-3.068 1.214 4.721 4.721 0 00-1.527 2.92 3.869 3.869 0 00.036 1.661c.132.545.382 1.055.73 1.494a3.22 3.22 0 002.593 1.045 3.949 3.949 0 001.545-.298 3.94 3.94 0 001.305-.877l-.092.57a.356.356 0 00.01.154.357.357 0 00.194.227.36.36 0 00.15.033h1.854a.598.598 0 00.388-.143.595.595 0 00.202-.36l1.113-7.033a.359.359 0 00-.01-.153.358.358 0 00-.195-.227.359.359 0 00-.15-.033"/><path fill="#009CDE" d="M58.004 25.27a2.29 2.29 0 01-2.324 1.961 1.598 1.598 0 01-.758-.106 1.595 1.595 0 01-.62-.446 1.591 1.591 0 01-.342-.684 1.589 1.589 0 01.017-.764 2.3 2.3 0 012.305-1.977 1.735 1.735 0 011.372.56 1.765 1.765 0 01.35 1.453m2.87-4h-2.059a.36.36 0 00-.232.085.358.358 0 00-.122.215l-.09.574-.145-.208c-.445-.645-1.439-.862-2.431-.862a4.74 4.74 0 00-3.068 1.214 4.722 4.722 0 00-1.528 2.92 3.87 3.87 0 00.037 1.661c.132.545.382 1.055.73 1.494.326.358.728.637 1.177.818a3.225 3.225 0 001.416.227 3.949 3.949 0 001.545-.298 3.942 3.942 0 001.305-.877l-.093.57a.356.356 0 00.01.154.356.356 0 00.072.135.358.358 0 00.123.092.36.36 0 00.15.033h1.854a.598.598 0 00.388-.143.595.595 0 00.202-.36l1.113-7.033a.357.357 0 00-.01-.153.357.357 0 00-.072-.135.358.358 0 00-.123-.092.359.359 0 00-.15-.033"/><path fill="#003087" d="M41.175 21.271h-2.07a.597.597 0 00-.279.07.595.595 0 00-.214.192l-2.856 4.195-1.21-4.032a.597.597 0 00-.215-.307.599.599 0 00-.357-.118h-2.033a.36.36 0 00-.164.039.359.359 0 00-.128.11.358.358 0 00-.063.156.357.357 0 00.016.168l2.277 6.674-2.143 3.017a.359.359 0 00-.064.182.358.358 0 00.039.19.358.358 0 00.132.14.36.36 0 00.186.053h2.067a.602.602 0 00.277-.068.601.601 0 00.214-.189l6.884-9.912a.357.357 0 00.022-.369.358.358 0 00-.132-.14.359.359 0 00-.186-.051z"/><path fill="#009CDE" d="M63.302 17.602l-1.763 11.204a.357.357 0 00.08.288.359.359 0 00.123.092.358.358 0 00.15.033h1.775a.598.598 0 00.387-.143.596.596 0 00.202-.36l1.74-11.002a.356.356 0 00-.01-.153.357.357 0 00-.072-.135.358.358 0 00-.272-.125h-1.985a.358.358 0 00-.233.085.357.357 0 00-.122.215"/></g><defs><clipPath id="a"><path fill="#fff" d="M10 17h56v15H10z"/></clipPath></defs></svg>