<svg xmlns="http://www.w3.org/2000/svg" fill="none" viewBox="0 0 87 49"><path fill="#000" d="M10 13h67v23H10z"/><path fill="#000" d="M73 14.808H14v19.385h59V14.808z"/><path fill="#fff" d="M30.816 28.9a.857.857 0 01-.393.673l-7.598 4.395a.877.877 0 01-.787 0l-7.597-4.395a.856.856 0 01-.393-.674v-8.79c0-.248.176-.549.393-.673l7.597-4.394a.877.877 0 01.787 0l7.598 4.394a.856.856 0 01.393.674v8.79zm42.179-8.158h-6.8v1.627h2.442v6.955h1.925v-6.955h2.432v-1.627zm-30.897 0h-6.81v1.627h2.442v6.955h1.925v-6.955h2.443v-1.627zm19.687-.27c-2.143 0-3.333 1.369-3.333 3.349v5.503h1.904V23.78c0-.86.508-1.523 1.45-1.523.941 0 1.438.788 1.438 1.523v5.545h1.905v-5.503c.01-1.98-1.222-3.348-3.364-3.348zm-7.183.27v8.582h1.904v-8.582h-1.904zm-6.459 3.4l.062.383 1.79 4.799h.777l2.432-8.582h-1.873l-1.16 4.509-.072.487-.093-.487-1.553-4.509h-.621l-1.553 4.509-.093.487-.062-.487-1.159-4.509h-1.884l2.433 8.582h.776l1.79-4.799.063-.383z"/><path fill="url(#a)" d="M26.396 24.525l-1.988 2.913-1.014-1.555 1.17-1.751c.217-.311.682-1.171.144-2.342-.435-.954-1.377-1.41-2.205-1.41-.828 0-1.728.425-2.215 1.41-.548 1.13-.072 2.01.135 2.311 0 0 .652.954 1.19 1.762l.88 1.275 1.325 2.032c.01.01.218.331.59.331.352 0 .57-.321.6-.352l3.106-4.602h-1.718v-.022zm-3.903.073s-.517-.788-.86-1.337a.981.981 0 01.86-1.472.982.982 0 01.86 1.472c-.332.55-.86 1.337-.86 1.337z"/><path fill="url(#b)" d="M20.59 27.345l-1.947-2.736s-.517-.788-.86-1.337a.981.981 0 01.86-1.472.9.9 0 01.29.041l.683-1.254a2.476 2.476 0 00-.962-.207c-.828 0-1.729.425-2.215 1.41-.549 1.13-.073 2.01.134 2.311l3.406 5.048c.03.041.248.363.61.363.363 0 .57-.311.6-.353l1.026-1.565-.88-1.295-.745 1.047z"/><defs><radialGradient id="a" cx="0" cy="0" r="1" gradientTransform="matrix(915.415 0 0 1033.32 201.44 100.282)" gradientUnits="userSpaceOnUse"><stop stop-color="#FC0"/><stop offset=".092" stop-color="#FFC800"/><stop offset=".174" stop-color="#FFBD00"/><stop offset=".253" stop-color="#FFAB00"/><stop offset=".33" stop-color="#FF9100"/><stop offset=".405" stop-color="#FF7000"/><stop offset=".479" stop-color="#FF4700"/><stop offset=".55" stop-color="#FF1800"/><stop offset=".582" stop-color="red"/><stop offset="1" stop-color="red"/></radialGradient><radialGradient id="b" cx="0" cy="0" r="1" gradientTransform="matrix(839.381 0 0 1270.92 30.845 153.019)" gradientUnits="userSpaceOnUse"><stop stop-color="#00B4E6"/><stop offset=".201" stop-color="#00B0E3"/><stop offset=".39" stop-color="#01A5DB"/><stop offset=".574" stop-color="#0292CD"/><stop offset=".755" stop-color="#0377BA"/><stop offset=".932" stop-color="#0455A1"/><stop offset="1" stop-color="#054696"/></radialGradient></defs></svg>