<svg xmlns="http://www.w3.org/2000/svg" fill="none" viewBox="0 0 63 49"><g clip-path="url(#a)"><path fill="url(#b)" d="M32.238 21.975c-.025 1.95 1.724 3.039 3.041 3.686 1.354.665 1.808 1.09 1.802 1.683-.01.91-1.08 1.31-2.08 1.325a7.211 7.211 0 01-3.567-.855l-.63 2.967c1.232.484 2.543.727 3.864.719 3.649 0 6.037-1.817 6.05-4.632.013-3.574-4.903-3.772-4.87-5.37.012-.484.47-1 1.475-1.132a6.493 6.493 0 013.426.605l.61-2.87a9.245 9.245 0 00-3.251-.601c-3.435 0-5.85 1.84-5.87 4.476m14.99-4.229a1.574 1.574 0 00-.89.268c-.265.177-.47.43-.589.726l-5.213 12.548h3.645l.726-2.021h4.458l.421 2.021H53l-2.804-13.542h-2.968m.51 3.658l1.052 5.086h-2.88l1.829-5.086m-19.922-3.658l-2.874 13.542h3.475l2.873-13.542h-3.474zm-5.14 0l-3.617 9.218-1.463-7.838a1.637 1.637 0 00-.548-.989 1.612 1.612 0 00-1.054-.391h-5.912L10 18.14a14.38 14.38 0 013.428 1.152c.511.28.657.525.825 1.19l2.77 10.808h3.673l5.63-13.543h-3.649"/></g><defs><linearGradient id="b" x1="29.78" x2="30.188" y1="31.78" y2="17.403" gradientUnits="userSpaceOnUse"><stop stop-color="#222357"/><stop offset="1" stop-color="#254AA5"/></linearGradient><clipPath id="a"><path fill="#fff" d="M10 17.5h43v14H10z"/></clipPath></defs></svg>