<svg width="18" height="18" viewBox="0 0 18 18" fill="none" xmlns="http://www.w3.org/2000/svg">
<path d="M10.6202 10.644C13.1156 10.0572 14.5974 8.19768 14.6238 5.5002C14.6361 4.2255 14.5534 2.94518 14.4408 1.67423C14.344 0.570115 13.7228 0.0133721 12.6845 0.00774845C10.2242 -0.00349888 7.76397 -0.00162433 5.30373 0.00774845C4.28127 0.0114976 3.62134 0.603857 3.54215 1.6761C3.44184 3.01079 3.35209 4.35484 3.38024 5.6914C3.43304 8.22018 4.97289 10.1116 7.29762 10.6327C7.65838 10.7133 8.02091 10.7902 8.36584 10.867V15.5384H6.78551C6.45114 15.5384 6.17837 15.829 6.17837 16.1852V16.2283C6.17837 16.5844 6.45114 16.875 6.78551 16.875H11.2168C11.5511 16.875 11.8239 16.5844 11.8239 16.2283V16.1852C11.8239 15.829 11.5511 15.5384 11.2168 15.5384H9.62059V10.8802C9.9972 10.7921 10.3087 10.719 10.6219 10.6459L10.6202 10.644ZM6.54793 1.22434C8.36232 1.22434 10.1785 1.22434 11.9928 1.22434C13.2546 1.22434 13.3321 1.30119 13.3937 2.62463C13.406 2.89831 13.3954 3.17575 13.3954 3.50754H4.64732C4.50653 1.26558 4.54173 1.22434 6.54793 1.22434ZM7.31522 9.32242C5.31957 8.75817 4.38686 7.19854 4.56637 4.89846H13.4218C13.6471 7.47598 12.2656 9.28118 9.83001 9.52299C9.00289 9.60547 8.1177 9.54924 7.31522 9.32242Z" fill="#9D0F38"/>
</svg>
